<svg xmlns="http://www.w3.org/2000/svg" width="161" height="153" viewBox="0 0 161 153" version="1.1"><path d="M 101.084 6.047 C 95.336 8.655, 91.382 12.887, 88.405 19.619 C 83.884 29.842, 86.303 42.428, 94.153 49.519 C 99.489 54.340, 103.697 56, 110.583 56 C 123.988 56, 134.012 44.953, 133.990 30.203 C 133.963 11.482, 116.829 -1.096, 101.084 6.047 M 105.252 17.745 C 101.664 19.530, 98 25.902, 98 30.356 C 98 34.079, 101.346 40.342, 104.407 42.347 C 107.346 44.273, 112.209 44.494, 115.295 42.842 C 124.376 37.982, 124.251 22.284, 115.094 17.549 C 111.394 15.635, 109.411 15.674, 105.252 17.745 M 7.405 57.155 C 6.962 57.870, 7.130 58.038, 7.845 57.595 C 8.998 56.883, 9.393 56, 8.559 56 C 8.316 56, 7.797 56.520, 7.405 57.155 M 149.500 57 C 149.840 57.550, 150.343 58, 150.618 58 C 150.893 58, 150.840 57.550, 150.500 57 C 150.160 56.450, 149.657 56, 149.382 56 C 149.107 56, 149.160 56.450, 149.500 57 M 55.405 147.155 C 54.962 147.870, 55.130 148.038, 55.845 147.595 C 56.480 147.203, 57 146.684, 57 146.441 C 57 145.607, 56.117 146.002, 55.405 147.155 M 101.500 147 C 101.840 147.550, 102.343 148, 102.618 148 C 102.893 148, 102.840 147.550, 102.500 147 C 102.160 146.450, 101.657 146, 101.382 146 C 101.107 146, 101.160 146.450, 101.500 147" stroke="none" fill="#ea7f2f" fill-rule="evenodd"/><path d="M 8.037 57.455 C 7.060 58.632, 9.539 65.643, 21.032 94.205 C 40.810 143.359, 42.093 146.405, 43.369 147.235 C 45.262 148.464, 54.678 148.096, 55.761 146.750 C 56.798 145.461, 65.284 125.390, 73.520 104.750 C 76.098 98.287, 78.611 93, 79.104 93 C 79.597 93, 80 93.416, 80 93.924 C 80 94.432, 82.428 100.620, 85.395 107.674 C 88.362 114.728, 93.142 126.125, 96.016 133 C 98.891 139.875, 101.693 146.063, 102.244 146.750 C 103.322 148.096, 112.738 148.465, 114.631 147.235 C 115.907 146.405, 117.190 143.359, 136.968 94.205 C 148.461 65.643, 150.940 58.632, 149.963 57.455 C 148.376 55.543, 131.754 55.371, 130.233 57.250 C 129.349 58.342, 117.367 87.955, 111.830 102.731 C 110.753 105.608, 109.496 108.193, 109.038 108.476 C 108.581 108.759, 104.733 100.780, 100.488 90.745 C 88.344 62.038, 86.823 58.581, 85.757 57.250 C 85.164 56.511, 82.403 56, 79 56 C 75.609 56, 72.824 56.513, 72.221 57.250 C 71.247 58.439, 53.071 102.020, 51.576 106.750 C 50.563 109.958, 49.524 109.546, 47.790 105.250 C 35.768 75.460, 28.597 58.266, 27.771 57.250 C 26.244 55.371, 9.624 55.544, 8.037 57.455" stroke="none" fill="#6308f6" fill-rule="evenodd"/><path d="M 8.037 57.455 C 7.060 58.632, 9.539 65.643, 21.032 94.205 C 40.810 143.359, 42.093 146.405, 43.369 147.235 C 45.262 148.464, 54.678 148.096, 55.761 146.750 C 56.798 145.461, 65.284 125.390, 73.520 104.750 C 76.098 98.287, 78.611 93, 79.104 93 C 79.597 93, 80 93.416, 80 93.924 C 80 94.432, 82.428 100.620, 85.395 107.674 C 88.362 114.728, 93.142 126.125, 96.016 133 C 98.891 139.875, 101.693 146.063, 102.244 146.750 C 103.322 148.096, 112.738 148.465, 114.631 147.235 C 115.907 146.405, 117.190 143.359, 136.968 94.205 C 148.461 65.643, 150.940 58.632, 149.963 57.455 C 148.376 55.543, 131.754 55.371, 130.233 57.250 C 129.349 58.342, 117.367 87.955, 111.830 102.731 C 110.753 105.608, 109.496 108.193, 109.038 108.476 C 108.581 108.759, 104.733 100.780, 100.488 90.745 C 88.344 62.038, 86.823 58.581, 85.757 57.250 C 85.164 56.511, 82.403 56, 79 56 C 75.609 56, 72.824 56.513, 72.221 57.250 C 71.247 58.439, 53.071 102.020, 51.576 106.750 C 50.563 109.958, 49.524 109.546, 47.790 105.250 C 35.768 75.460, 28.597 58.266, 27.771 57.250 C 26.244 55.371, 9.624 55.544, 8.037 57.455" stroke="none" fill="#6308f6" fill-rule="evenodd"/><path d="M 0 76.506 L 0 153.012 80.750 152.756 L 161.500 152.500 161.756 76.250 L 162.012 0 81.006 0 L 0 0 0 76.506 M 0.476 77 C 0.476 119.075, 0.599 136.288, 0.750 115.250 C 0.900 94.213, 0.900 59.788, 0.750 38.750 C 0.599 17.713, 0.476 34.925, 0.476 77 M 101.084 6.047 C 95.336 8.655, 91.382 12.887, 88.405 19.619 C 83.884 29.842, 86.303 42.428, 94.153 49.519 C 99.489 54.340, 103.697 56, 110.583 56 C 123.988 56, 134.012 44.953, 133.990 30.203 C 133.963 11.482, 116.829 -1.096, 101.084 6.047 M 105.252 17.745 C 101.664 19.530, 98 25.902, 98 30.356 C 98 34.079, 101.346 40.342, 104.407 42.347 C 107.346 44.273, 112.209 44.494, 115.295 42.842 C 124.376 37.982, 124.251 22.284, 115.094 17.549 C 111.394 15.635, 109.411 15.674, 105.252 17.745 M 7.304 57.650 C 6.762 59.062, 25.805 107.939, 38.999 139 L 42.609 147.500 49.457 147.500 L 56.304 147.500 67.589 120.004 C 76.130 99.192, 79.058 92.992, 79.633 94.504 C 80.051 95.602, 85.194 107.975, 91.062 122 L 101.732 147.500 108.580 147.500 L 115.428 147.500 118.789 139.500 C 132.152 107.687, 151.078 59.643, 150.806 58.222 C 150.528 56.765, 149.041 56.456, 141.138 56.211 C 135.464 56.036, 131.285 56.348, 130.491 57.007 C 129.772 57.604, 124.803 69.209, 119.447 82.796 C 114.092 96.383, 109.407 107.847, 109.035 108.270 C 108.663 108.694, 103.701 97.894, 98.009 84.270 C 92.316 70.647, 86.990 58.712, 86.174 57.750 C 85.082 56.462, 83.187 56, 79 56 C 74.810 56, 72.921 56.461, 71.834 57.750 C 71.022 58.712, 65.962 70.300, 60.590 83.500 C 55.218 96.700, 50.499 107.841, 50.103 108.259 C 49.707 108.676, 44.955 97.876, 39.544 84.259 C 34.132 70.641, 29.026 58.712, 28.197 57.750 C 26.028 55.231, 8.265 55.146, 7.304 57.650" stroke="none" fill="#fbf9fb" fill-rule="evenodd"/></svg>